<?xml version="1.0" encoding="UTF-8"?>
<svg version="1.1" viewBox="0 0 2048 949" width="1280" height="1280" xmlns="http://www.w3.org/2000/svg">
<path transform="translate(1214,248)" d="m0 0 4 1 14 12 15 14 15 16 10 12 13 18 11 18 14 27 9 21 6 18 7 28 6 37 1 11v39l-3 26-5 28-6 24-8 23-16 33-10 18-10 15-14 19-13 14-7 8-17 16-10 8-17 13-15 10-21 12-16 8-19 8-25 8-27 7-23 4-20 2h-48l-24-3-23-5-28-8-23-8-25-12-26-15-12-8-2-4 7-11 8-10 9-10 11-10 6-3 13 8 18 10 16 8 22 8 21 5 25 4 19 2h32l23-3 28-6 26-8 18-8 19-10 19-12 13-10 11-9 16-15 9-10 13-17 9-13 9-16 11-22 7-19 6-22 4-21 2-18v-44l-3-25-5-24-8-24-13-28-12-21-9-12-4-6-1-6v-29l-4-38-3-15z" fill="#3571C9"/>
<path transform="translate(994,178)" d="m0 0h43l28 3 28 5 21 6 28 11 18 8 6 5-1 11-4 12-7 12-10 10-9 5-6-1-19-8-36-12-28-5-11-1h-37l-25 3-23 5-32 11-20 9-15 8-21 14-13 10-10 9-14 13-7 8-14 18-12 18-12 23-9 20-8 24-4 18-4 29-1 26 1 20 4 28 6 25 11 28 4 8-1 9-5 16-4 20v30l3 15 1 9h-3l-11-14-13-18-12-19-12-23-11-25-8-25-6-27-5-33-1-12v-31l2-22 5-31 7-28 7-20 13-28 11-21 10-15 12-17 11-14 10-10 7-8 10-10 11-9 9-8 17-12 22-14 21-11 27-11 20-7 25-6 33-5z" fill="#2E4E8F"/>
<path transform="translate(1186,231)" d="m0 0h2l4 20 6 39 2 16v33l-3 23-5 22-6 16-8 15-12 16-11 12-12 11-11 9-9 8-11 9-10 9-9 10-10 13-13 15-8 10-4 4-5-1-5-4-4-11v-11l6-15 7-12 18-24 9-16 1-7-3-7-2-1h-14l-20 6-39 18-12 7-12 8-13 10-14 10-10 9-10 7-7 1-8-5-1-4 7-11 11-12 14-15 14-11 16-13 6-5 2-4-11 6-30 20-16 12-13 11-12 11-10 9-6 4h-5l-6-6 1-6 8-13 8-10 8-9 8-7 13-12 12-10 14-10 18-11 1-2-14 3-18 8-17 12-10 9-11 9-8 8-10 7-6 1-6-3-2-3 1-4 8-12 12-16 11-12 10-9 15-11 24-14 14-7h-9l-17 4-16 8-11 10-8 7-11 9-2 1h-8l-2-1 1-7 6-12 8-12 9-10 13-11 11-8 18-10 25-10 22-6 19-3 49-5 25-5 17-5 24-11 18-10 9-7 13-13 7-10 5-10 5-12z" fill="#EC1F5E"/>
<path transform="translate(996,500)" d="m0 0 6 1 4 5 3 10-2 17-8 13-8 9-14 9-19 8-13 7-8 9-3 6 1 8 7 8 11 6 16 5 13 2 32 2h22l24-2 20-4 27-8 24-10 14-7 21-7h9l8 5 1 2v6l-9 10-14 10-10 7-16 10-25 13-22 10-21 7-21 5-21 3h-91l-25 3-19 5-20 8-15 9-10 8-20 20-15 21-4-5-12-33-4-22v-29l4-20 6-15 10-18 9-12 16-16 14-11 19-11 30-13 30-9 18-5 14-5 15-10 9-7h2l1-3 6-4z" fill="#3873C9"/>
<path transform="translate(1261,699)" d="m0 0h4l2 5-3 3-3 6-7 7-7 8-17 16-10 8-17 13-15 10-21 12-16 8-19 8-25 8-27 7-23 4-20 2h-48l-24-3-23-5-28-8-23-8-25-12-26-15-12-8-2-4 7-11 8-10 9-10 11-10 6-3 13 8 18 10 16 8 22 8 7 2-4 1-27-9-15-7-9-4-8-5-1 1 7 7 11 8 23 12 24 10 24 7 19 4 30 3h49l28-3 19-3 30-8 24-9 27-12 26-14 15-10 14-11z" fill="#EC205F"/>
<path transform="translate(994,178)" d="m0 0h43l28 3 28 5 21 6 28 11 18 8 6 5-1 11-4 12-7 12-10 10-9 5-6-1-19-8-29-10 4-1 22 7-1-3-16-8-10-4-13-5-14-4-27-4-12-1h-44l-34 3-45 8-18 5-24 10-19 9-15 8v3l2 3-9-1-9 6-14 11-9 9-7 8-10 6-7 9-4 5h-3l-2 5-8 14-12 23-2 2 1-5 12-24 12-19 11-15 9-12 9-10 15-16 7-7 11-9 9-8 17-12 22-14 21-11 27-11 20-7 25-6 33-5z" fill="#3A75CA"/>
<path transform="translate(118,503)" d="m0 0 12 1 64 12h15l1 1v5l-8 12-3 3-7-1-8-2-5 1-6 8-7 11-8 12 2 5 7 11-1 5-6 9-2 8-8 13-3 3-27 2-8 14 1 3 16 9 1 4-7 13-4 1-17-10-22-12-21-12-12-7 2-6 12-22 9-14 7-7 7-4 4-1h14l11 4 5 5 5 8 3 12v3l22-2 7-1-6-11-9-16-16-26-12-20-4-6 1-6zm12 19 8 16 7 11 4 1 12-15 3-4-1-3-31-6zm-40 68-6 4-7 8-6 10 2 4 10 7 11 6 4-1 6-10 4-10v-8l-4-6-7-4z" fill="#3C5996"/>
<path transform="translate(636,104)" d="m0 0 4 1 15 14 50 50v2l-17 6-5-1-8-10-6-1-34 12-1 20-13 7-9 6-7 4h-7l-35-16h-2l-3 11v6l7 14-1 4-13 6-5-1-19-39-14-30-2-6 8-5 6-4 4 1 15 31 3 2 5-20 10-30 8-5 11-4 2 1-15 46 3 3 44 22 2-50 2-31 1-9 4-3zm0 22-1 17v18l10-3 15-6-2-4-14-15-6-7z" fill="#3D5A97"/>
<path transform="translate(778,61)" d="m0 0h5l3 9 18 69v5l-9 3h-8l-5-16-8-28v-2h-2l-1 8-9 31-5 8-3 1-6-4-12-11-10-9-9-8 4 16 7 25 1 5-10 4-8 1-3-8-11-42-8-29v-3l10-4h7l8 8 8 7 8 8 8 7 11 12 3-9 8-27 7-22 8-4z" fill="#3B5996"/>
<path transform="translate(325,280)" d="m0 0 4 2 11 13 14 15 9 11 9 10 7 8 3 4-1 4-5 5-5 4-13-2-43-7-10-1 10 11 7 8 12 14 3 4-2 4-10 9-4-1-11-12-9-11-10-11-9-11-10-11-5-6 2-4 7-7 2-1h7l27 5 24 4 8 2-10-13-22-26 1-3 11-9z" fill="#3D5B97"/>
<path transform="translate(1418,111)" d="m0 0 9 3 6 4 3 8 15 52v3h2l2-6 14-31 4-9 5 1 12 5-1 7-11 26-18 41-3 5-3 1-11-6-3-5-10-34-6-22-1-2-8 17-10 23-3 6-16-7-2-3 19-43 9-21 5-12z" fill="#3A5896"/>
<path transform="translate(1022,36)" d="m0 0h14l5 2 10 14 10 13 16 21 2 2 2-49 1-1h9l10 1v20l-3 64-1 2h-9l-7-2-7-8-12-16-21-27-2-1v40l-1 11h-14l-5-1v-28l2-45z" fill="#355493"/>
<path transform="translate(1289,668)" d="m0 0 1 2-10 16-12 16-3-1v-2l-5 2-13 13-16 12-15 9-28 15-26 11-22 8-32 8-30 4-12 1h-49l-30-3-23-5-23-7-25-11-21-11-13-11-5-6 5 1 9 6 13 5 11 5 24 8 23 4 12 2v2l13 1 9 1h39l24-3 11-1v1h-5v2l-7 2-15 2-2 1 6 3 12 1 31-4 10-2 31-7 12-4 13-5 5 1 1 2-6 2-4 1v3l15-5 19-9 14-7 14-9 13-9 18-11 9-7 6-4z" fill="#3262C0"/>
<path transform="translate(1643,231)" d="m0 0 5 2 9 8 1 11 1 24v31l5-4 13-17 11-15 2-3 5 1 11 8v4l-14 18-10 14-10 13-9 12-6 9-5-2-10-9-2-48v-17l-5 5-11 14-12 17-2 3-7-2-10-7 2-5 8-11 16-21 10-14 10-13z" fill="#3B5996"/>
<path transform="translate(1224,56)" d="m0 0 16 2 23 5 15 6 6 5 6 10 1 3v15l-4 9-7 8-8 4-5 1 2 5 9 20 1 7-17-4-4-4-7-17-2-7-13-3h-5l-5 21-4 1-15-4-1-1 1-9 8-35 8-36zm17 19-3 7-4 18v4l18 4h10l6-4 4-9-2-9-5-5-10-4z" fill="#3D5A97"/>
<path transform="translate(943,39)" d="m0 0h12l9 2 9 6 6 9 3 10v9l-4 10-5 7-5 3h-2l8 11 9 11 3 5-2 1-15 1-5-2-13-16-4-4h-18l2 23-4 2-14 1-2-1-1-4-5-70v-11zm-9 16-8 1-1 3 2 24 1 4 17-1 8-2 6-4 3-7-1-8-4-6-4-3-4-1z" fill="#395795"/>
<path transform="translate(1993,626)" d="m0 0 4 1 14 29 13 28-3 3-8 4-5-1-18-38-15 6 1 6 14 29-1 3-7 4-5 2-5-8-12-26-2-1-15 6-1 2 14 30 5 10-5 5-8 4-4-5-19-39-7-16 4-3 25-12z" fill="#425F9A"/>
<path transform="translate(47,649)" d="m0 0h10l11 4 8 6 6 8 2 7v10l-4 15-8 17 6 2 14 6 1 3-7 16-6-1-16-8-40-19-16-7-1-3 6-12 8-18 7-12 7-8 9-5zm0 21-8 7-7 12-1 7 19 10 7 2 5-8 5-16-1-6-5-6-4-2z" fill="#3B5996"/>
<path transform="translate(1523,165)" d="m0 0 14 1 11 4 10 7 5 4 8 11 3 6-1 5-9 2h-6l-9-13-8-6-5-2h-12l-9 4-8 7-4 8-1 4v11l3 8 4 5 16 8h7l5-8 4-12 13 4 5 3-1 5-9 17-6 8-5 3-12-1-14-4-11-7-8-7-7-11-4-10-1-5v-9l4-13 6-10 7-8 8-5 9-3z" fill="#3C5996"/>
<path transform="translate(118,503)" d="m0 0 12 1 64 12h15l1 1v5l-8 12-3 3-7-1-8-2-5 1-6 8-7 11-8 12 2 5 7 11-1 5-6 9-3 5-4-1h2l-6-11-9-16-16-26-12-20-4-6 1-6zm12 19 8 16 7 11 4 1 12-15 3-4-1-3-31-6z" fill="#3B5997"/>
<path transform="translate(1901,479)" d="m0 0 4 4 8 11-2 4-10 7-19 13-13 10-6 9v8l5 10 5 4 8 2 13-5 22-15 16-11 4-1 4 5 6 12-39 26-13 6-8 2h-12l-10-5-8-7-7-10-5-12v-14l4-9 6-8 7-7 18-13 17-12z" fill="#3F5D99"/>
<path transform="translate(229,369)" d="m0 0 8 1 29 10 21 8 28 10 4 4-10 9-4 4-5-1-11-4-6 2-16 16-7 9 1 6 6 9-1 4-8 9-3 6h-2l-9-21-16-39-11-27 1-4 8-8zm9 20 3 9 9 21 3 2 5-5 13-14-2-2-30-11z" fill="#3D5B97"/>
<path transform="translate(443,197)" d="m0 0 6 1 21 14 17 12 36 24-2 4-14 8-4-2-9-7h-6l-27 16-4 3 1 8 1 11-10 8-5 3h-2l-3-16-8-59-2-18 9-7zm4 22 5 33 1 2 5-2 18-12v-3l-10-6-17-12z" fill="#415E99"/>
<path transform="translate(1125,41)" d="m0 0 18 2 1 5-4 30-1 7v20l4 6 8 4h12l7-4 4-7 8-53 1-2 10 1 9 2-1 12-5 34-3 11-5 10-8 9-10 4-7 1h-9l-14-3-10-6-7-7-4-9-1-4v-15l4-33 2-14z" fill="#3E5B98"/>
<path transform="translate(849,49)" d="m0 0h6l7 9 15 24 7 10 13 20 9 14-1 2-15 2-5-1-7-12-2-2-14 1-25 4-5 18-2 2-19 3 2-9 7-26 11-42 4-14 7-2zm-1 21-2 5-7 29 13-1 15-2-2-5-9-17-6-9z" fill="#3E5B98"/>
<path transform="translate(1325,81)" d="m0 0h10l14 4 16 9 4 3-1 5-7 10-5-3-10-7-13-4-8 1-5 5 1 5 1 3 4 2 17 10 10 8 5 9 1 7-4 11-7 8-9 4-5 1-14-1-14-5-11-6-9-8-1-5 6-8 5-2 8 8 14 7 6 2h8l5-3 1-5-6-7-19-12-9-9-4-8v-10l4-8 7-6 10-4z" fill="#405D99"/>
<path transform="translate(1715,300)" d="m0 0h13l11 4 11 8 7 7 8 13-1 5-8 7-4-1-6-9-8-10-7-5-8-1-4 3v7l6 11 9 14 5 12-2 9-6 8-6 5-6 2h-13l-8-4-9-7-11-11-10-15-1-4 4-4 8-5h3l7 14 8 10 7 6 7 2 6-3 1-4-7-14-9-14-4-10v-8l5-10 7-6z" fill="#3D5B98"/>
<path transform="translate(186,420)" d="m0 0 6 1 5 10-2 4-8 5-6 5-7 10-1 7 3 5 5 1 10-6 13-9 8-5 6-2h7l10 4 5 6 4 10v11l-5 12-9 13-9 7-10 5-9 1-6-9v-3l9-4 8-6 9-9 4-7v-6l-2-4-9 1-28 18-6 2h-11l-8-6-6-9-2-6 1-10 4-10 8-11 10-10z" fill="#3D5A97"/>
<path transform="translate(1847,413)" d="m0 0 5 4 7 9 9 11 11 13 10 13 6 9-4 4-6 5-4-1-8-10-6-8-5 1-10 9-11 9-14 12-15 11-4-2-8-10-2-3 10-9 11-9 15-12 13-10 5-5-12-14-4-7 5-5z" fill="#3D5A97"/>
<path transform="translate(1950,554)" d="m0 0 4 2 14 24 12 21 9 16-1 4-9 5-4-1-6-9-6-11-6 2-21 12-25 14-10 5-9-15 1-4 23-13 17-10 17-9-1-5-10-19 2-4 8-4z" fill="#43609A"/>
<path transform="translate(396,227)" d="m0 0 4 4 5 9-2 4-18 13 2 4 14 19 13 18 9 12 1 5-11 8-5 1-12-16-10-14-14-19-3-4-5 1-13 10-4 3-4-2-7-11 9-8 14-10 16-12 18-13z" fill="#3F5C98"/>
<path transform="translate(1773,338)" d="m0 0 4 1 5 4 7 8 36 36 3 4-2 4-7 6-5-1-12-12-3-4-5 1-42 42-3 4-5-2-10-10-1-3 13-11 9-9 2-3h2l2-4 14-14 5-4 1-4-9-10-8-7 3-5z" fill="#3A5896"/>
<path transform="translate(1382,99)" d="m0 0 7 1 12 5-2 10-17 46-7 20-2 5-11-3-7-3-1-4 8-21 7-20 9-24 3-11z" fill="#405D99"/>
<path transform="translate(1829,395)" d="m0 0 4 1 9 10 1 4-15 15-11 9-8 8-11 9-13 12-5 4-13-13 1-4 11-9 16-15 13-12 11-10 8-7z" fill="#3E5B99"/>
<path transform="translate(1612,211)" d="m0 0 5 2 11 7 1 2-19 29-11 17-10 15-7 10-10-5-6-5 2-6 8-11 10-16 17-26 8-12z" fill="#425E9A"/>
<path transform="translate(218,446)" d="m0 0h7l10 4 5 6 4 10v11l-5 12-9 13-9 7-10 5-9 1-6-9v-3l9-4 8-6 9-9 4-7v-6l-2-4-9 1-14 9-11 7-1-3 12-9 11-6 3-5 5-3-3-2-3-3v-2l2-1-7 1 3-3z" fill="#4B76C8"/>
<path transform="translate(1077,567)" d="m0 0 9 1 3 2-1 9-7 11-14 15-7 8-10 2-12 1h-15l3-5 7-7 7-8 9-10 7-7 15-10z" fill="#395795"/>
<path transform="translate(1129,563)" d="m0 0h11l4 2 1 5-4 9-10 11-5 6-14 7-27 8-8 2-4-1 17-17 2-3h2l2-4 5-4 4-5 14-11z" fill="#395896"/>
<path transform="translate(935,759)" d="m0 0 11 3 11 4 17 3 9 2 8 3 18 2 28 1h12l31-2 17-3 28-7 12-2 8-3 3 1-8 5-10 3 15-4 6-1-2 2-24 7-17 4-30 4-12 1h-49l-30-3-23-5-23-7-7-3z" fill="#26478B"/>
<path transform="translate(1024,575)" d="m0 0 9 2 1 5-6 11-12 14-8 8-5 1-23-2 1-4 12-13 7-8 7-6 10-6z" fill="#365696"/>
<path transform="translate(996,500)" d="m0 0 6 1 4 5 3 10-2 17-3 5-1-2 2-4v-21l-3-7-5-1-6 3-10 9-12 7-10 6-13 5-44 12-30 13-18 10-12 9-14 12-8 8-9 13-9 16-6 15-3 14-1 10v15l1 14 5 22 11 28h2l7-10 2-1-2 4-7 11-2 1-5-10-10-28-4-22v-29l4-20 6-15 10-18 9-12 16-16 14-11 19-11 30-13 30-9 18-5 14-5 15-10 9-7h2l1-3 6-4z" fill="#FDFDFD"/>
<path transform="translate(877,728)" d="m0 0 5 1 9 6 13 5 11 5 24 8 23 4 12 2v1h-11l-2 4-15-1-11-4 1 4-7-1-29-14-11-8-10-9z" fill="#437BCC"/>
<path transform="translate(970,868)" d="m0 0h11l7 4 4 7v12l-3 9-6 8-8 5-3 1h-10l-6-4-5-10v-10l4-9 7-8zm3 3-7 4-6 8-2 7v11l3 6 5 3h6l6-4 5-8 2-7v-10l-4-8-4-2z" fill="#6E98D7"/>
<path transform="translate(672,868)" d="m0 0 10 1 5 4 10 23 2 3 4-16 1-14 1-1 9 1-5 12-6 20-2 10h-4l-4-6-8-19-3-4-7 25h2l1 5-3 1h-9v-3l5-4 6-21 1-9z" fill="#2A519E"/>
<path transform="translate(1047,868)" d="m0 0 10 1 5 5 9 20 3 5 4-16 1-14 6-1 3 3-4 9-6 20-2 11h-4l-3-3-10-24-2-2-6 22 2 5v3h-13l4-5h2l3-14 4-16z" fill="#2A509D"/>
<path transform="translate(1214,248)" d="m0 0 4 1 14 12 15 14 15 16 10 12 13 18 11 18 14 27 9 21 6 18 7 28 6 37v11h-1l-5-36-7-30-7-22-6-16-12-25-14-25-10-14-10-13-10-11-7-8-16-16-16-14 4 27 2 19 1 40 5 8-1 2-6-8-1-6v-29l-4-38-3-15z" fill="#FDFDFD"/>
<path transform="translate(1e3 221)" d="m0 0 36 2 26 3 18 5 17 7 10 6 4 3v2h4v2l4 2 4 7-5-1-10-4v-2h-2l-1-3-16-8-10-4-13-5-14-4-27-4-12-1-42-1v-1z" fill="#3262C0"/>
<path transform="translate(284,388)" d="m0 0 9 2 22 8 4 4-10 9-4 4-5-1-13-5 2-9-5-2-4-4 2-5z" fill="#406CC2"/>
<path transform="translate(1258,883)" d="m0 0h23v3l-6 2-5 12-8 6 3-10 2-4 1-6-8 1-3 10-2 9 6 2 11 6 1 6-4 5-3 2h-14l-8-3-1-1 1-7 6-9 1-2 1-14 3-6zm-9 31-2 1 1 7 7 3h10l3-3-2-5-8-3z" fill="#6793D5"/>
<path transform="translate(828,868)" d="m0 0h23l5 1 1 8-2 4-3-4-2-6h-11l-3 8-2 9 8-2 1-3 3 1v11h-4l-4-4-5 1-3 12 1 4 3 1h10l7-4 4-4-1 7-3 4h-33l2-4 3-4 6-23 1-8z" fill="#467DCD"/>
<path transform="translate(1232,351)" d="m0 0 5 5 11 19 13 27 8 22 5 21 4 25 1 12v38l-3 27-5 24-7 21-12 27-11 20-4 4 2-5 14-27 8-18 6-19 6-27 3-24v-44l-3-25-5-24-8-24-13-28-12-21-3-4z" fill="#FDFDFD"/>
<path transform="translate(1289,668)" d="m0 0 1 2-10 16-12 16-3-1v-2l-5 2-13 13-16 12-15 9-28 15-26 11-8 3-3-1 12-5 29-13 14-8 17-11 19-13 10-8z" fill="#26478B"/>
<path transform="translate(1326,868)" d="m0 0h10l7 3 2 4v6l-2 2-4-5-5-5h-8l-8 7-4 10v11l3 6 4 2 9-1 6-4 3-1-1 4-7 6-4 1h-10l-6-4-4-6-1-5v-8l4-10 8-9z" fill="#3A69B8"/>
<path transform="translate(1815,476)" d="m0 0 2 1v3h9l6 3 4-1-5 5-9 8-4 5-6 4-4-2-8-10-2-3 10-9 5-2z" fill="#3B5996"/>
<path transform="translate(634,867)" d="m0 0h3l-1 9-5 24v7l1 4-1 1h-11l1-4 3-3v-7l-4-3 5-3 3-7v-6l-8 11-2 5-7 4-5 7-1 5-2 1h-12l1-2 10-5 11-13 10-13 9-10z" fill="#5484CE"/>
<path transform="translate(1232,649)" d="m0 0v3l-12 16-12 14-16 16-14 11-13 10-20 12-23 12-20 8-23 6-27 5-17 2h-39l-22-3v-1l16 1 11 1h32l23-3 28-6 26-8 18-8 19-10 19-12 13-10 11-9 16-15 9-10 13-17z" fill="#FDFDFD"/>
<path transform="translate(1362,883)" d="m0 0h13l1 1-1 10-4 15 4-1-1 5-1 1h-7l-3-3v-6l5-11v-7h-5l-5 5-3 8v8l7 2v3h-11l-2-2v-12l5-10z" fill="#336AC5"/>
<path transform="translate(906,883)" d="m0 0h13l2 1-2 10-4 14 7-5-2 7-2 2-10 1-1-1 1-9 5-11v-5h-6l-4 5-4 9v5l7 4-1 3h-8l-4-3v-9l4-9 4-6z" fill="#FAFBFC"/>
<path transform="translate(1015,867)" d="m0 0h12l2 1-1 4-2 1-9-3-2 9-4 16-6 20-4 8-4 4-6 1-5-3v-2h11l4-16 5-21h-2l1-3 3-3 4-10z" fill="#5D8DD3"/>
<path transform="translate(1843,452)" d="m0 0 2 1-10 11-1 4 5-2-3 7h2l1 6h-2v2l4-3 2 1-10 9-10 8-2-1 10-9 4-3-2-1-1 2-6-3h-12l1-4-3 3-2-1 10-9 17-13z" fill="#5D82CB"/>
<path transform="translate(772,882)" d="m0 0 5 1 1 6-5 10v6l1 2h6l3-4 1-3 1-17h4l2 2-1 13-4 8-5 5-4 2h-6l-5-5-1-4 2-13 4-8zm0 8 1 3 1-3z" fill="#E1EAF6"/>
<path transform="translate(1091,309)" d="m0 0 4 1-18 5-29 4-40 4-25 5-18 6-20 9-15 8-13 10-9 8-8 7-11 17-5 10-1 6h-2l1-7 6-12 8-12 9-10 13-11 11-8 18-10 25-10 22-6 19-3 49-5 25-5z" fill="#FDFDFD"/>
<path transform="translate(982,179)" d="m0 0h12v1l-32 4-29 6-20 6-27 11-25 12-15 9-18 12-13 10-11 10-10 8-12 12v-3l15-15 11-9 9-8 17-12 22-14 21-11 27-11 20-7 25-6z" fill="#FDFDFD"/>
<path transform="translate(218,488)" d="m0 0v3l-4 5-2 4 8-4h2l-1 9 3 2-8 5-8 3h-6l-6-9v-3l9-4 8-6z" fill="#4370C5"/>
<path transform="translate(218,446)" d="m0 0h7l8 3-3 5-3 3-1 5-2 1 1 4h-7l-10 5-16 11-3 1v-3l12-9 11-6 3-5 5-3-3-2-3-3v-2l2-1-7 1 3-3z" fill="#4974C6"/>
<path transform="translate(1847,413)" d="m0 0 5 4-1 5v3l11 12 1 3-3 3-4-1-5-5v-2l-8-2-7-9 1-3z" fill="#446FC4"/>
<path transform="translate(968,222)" d="m0 0 3 1-1 1-34 3-45 8-18 5-10 4-3-1 17-8 14-5 27-5 27-2z" fill="#3363C1"/>
<path transform="translate(733,882)" d="m0 0 5 1 1 2v6l-4 5-7 4h-2l1-3 5-5v-6h-4l-4 9-3 10 3 3h5l4-3-1 4-3 3-9 1-4-2-2-7 4-11 6-8 2-2z" fill="#EBF0F8"/>
<path transform="translate(1390,883)" d="m0 0 7 1 5 2 2-3h8v3l-10 4-5 10-4 10-2 2h-5l1-5 3-7 1-9-2-4z" fill="#5A8BD2"/>
<path transform="translate(672,868)" d="m0 0 10 1 5 4 9 21-1 2-9-17-3-7-5-1 3 6 3 3-3 6-6 21h2l1 5-3 1h-9v-3l5-4 6-21 1-9z" fill="#B7CCEA"/>
<path transform="translate(759,882)" d="m0 0 4 2-4 8-3 8-1 8h9v3l-2 2h-8l-5-5 2-9 4-11-9 4-1-5 4-4z" fill="#97B3E1"/>
<path transform="translate(219,488)" d="m0 0h5l10 2 1 3-2 5-6 7-7 2v-8l2-3-11 6-3-1 4-2 2-5z" fill="#355596"/>
<path transform="translate(1168,883)" d="m0 0h9l1 4-4 1-7-1 6 10 2 9-1 3-4 3h-11l-2-2v-4l5 1 8 3-3-9-5-7v-6l3-1 1-3z" fill="#EAEFF8"/>
<path transform="translate(1192,883)" d="m0 0h6l2 1-3 9-2 9-1 5h2l1-3 2 1-2 7-1 1h-9l-1-1 1-8 2-5v-11z" fill="#FDFDFD"/>
<path transform="translate(1098,882)" d="m0 0h5l1 5-5 21 5 1-1 3-9 1-2-1v-7l3-11 1-10z" fill="#93AFDF"/>
<path transform="translate(1115,882)" d="m0 0h4l-1 8-2 9v12l-3 3-6-2-1-8 8-21z" fill="#FDFDFD"/>
<path transform="translate(1233,882)" d="m0 0 5 1v9l-2 9v10l-2 2h-7l-1-4 4-12v-13z" fill="#3871C8"/>
<path transform="translate(1134,882)" d="m0 0 6 2 4 2-1 7-5 12-3 6-4 2-2-3 4-11v-16z" fill="#4E81CE"/>
<path transform="translate(1425,885)" d="m0 0h1l-1 8-1 5-2 3 1 7h8l6-5 1 2-4 5-7 3h-8l-4-4-1-5 4-11z" fill="#4974C4"/>
<path transform="translate(1217,882)" d="m0 0 6 2 1 6-8 22h-5l-1-2 4-13v-14z" fill="#336EC7"/>
<path transform="translate(632,869)" d="m0 0v3l-2 5v7h-1l-1-5-8 11-2 5-7 4-5 7-1 5-2 1h-12l1-2 10-5 11-13 10-13z" fill="#91B1E0"/>
<path transform="translate(231,450)" d="m0 0 5 1 4 5 1 6-7 4-1 3-8-2v-3l-2-1 3-1v-5l3-1z" fill="#305091"/>
<path transform="translate(1258,883)" d="m0 0h23v3l-6 2-5 12-8 6 3-10 2-4 1-6h-8-2l-3 3-2 16h-1v-14l3-6z" fill="#FDFDFD"/>
<path transform="translate(1326,868)" d="m0 0h10l7 3 1 4-4-3-5-2h-8l-10 6-6 8-2 7v8l3 8 5 4 6 1 5-1h-8l-1-2h8l12-6-1 4-7 6-4 1h-10l-6-4-4-6-1-5v-8l4-10 8-9z" fill="#FDFDFD"/>
<path transform="translate(866,717)" d="m0 0 9 5 21 12 16 8 18 7 13 4-4 1-27-9-15-7-9-4-8-5-9-5-5-3-5 2-3 3-2-1 8-7z" fill="#FDFDFD"/>
<path transform="translate(869,883)" d="m0 0h7l4 6-6 15-3 7-5 1-1-2 6-19z" fill="#6E98D7"/>
<path transform="translate(959,876)" d="m0 0v3l-4 8-1 5v7l4 9 3 3h4l-3-3 10 1 6-4 5-10 1-4v-10l-1-5 2 1 1 3v13l-4 10-5 6 3 1-8 4h-10l-6-4-5-10v-10l4-9z" fill="#FDFDFD"/>
<path transform="translate(828,868)" d="m0 0h23l5 1 1 8-2 4-3-4-2-6h-11l-2 1v-2l-5 1v8l-7 27-7 6 2-4 3-4 6-23 1-8z" fill="#FDFDFD"/>
<path transform="translate(705,868)" d="m0 0 9 1-5 12-6 20-1 5-2-4 1-10 2-9 1-14z" fill="#FDFDFD"/>
<path transform="translate(1112,573)" d="m0 0 2 1-20 20h-2l-2 4-3 5-2 4 14-1-3 2-19 5-4-1 17-17 2-3h2l2-4 5-4 4-5z" fill="#6790D3"/>
<path transform="translate(1082,868)" d="m0 0 5 1 1 2-4 9-6 20-2 7h-1v-10l3-14 1-14z" fill="#E8EEF7"/>
<path transform="translate(772,882)" d="m0 0 5 1 1 6-5 10v8h-2l-1-2v-7l2-6 2-2h-3l-3 10v6l4 5 5 1v1h-6l-5-5-1-4 2-13 4-8z" fill="#E5ECF7"/>
<path transform="translate(877,728)" d="m0 0 5 1 9 6 5 5 18 12 11 6-3 1-22-11-11-8-10-9z" fill="#26498E"/>
<path transform="translate(1827,403)" d="m0 0h4l7 2h3l2 5-15 15-2-1 9-9-7-3-2-7z" fill="#6086CD"/>
<path transform="translate(1312,627)" d="m0 0 1 3-12 24-10 18-10 15-14 19-4 3 2-4 9-12 7-10 8-13 13-24z" fill="#FDFDFD"/>
<path transform="translate(1357,888)" d="m0 0 1 2-3 10v8l7 2v3h-11l-2-2v-12l4-8z" fill="#A5BAE0"/>
<path transform="translate(1251,905)" d="m0 0 1 3-2 4h7l7 3-3 1-3-1h-11l1 7 7 2h10l3-6 2 1 1 4-5 4h-14l-8-3-1-1 1-7 6-9z" fill="#F5F7FA"/>
<path transform="translate(1314,880)" d="m0 0 1 3-2 6v11l4 7 3 3h11l-1 2-10 1-6-3-4-5-2-6v-8l3-9z" fill="#375899"/>
<path transform="translate(1056,877)" d="m0 0 2 1-3 11-4 17 2 3v3h-13l4-5h2l3-14 2-6 2 1z" fill="#DCE6F4"/>
<path transform="translate(986,875)" d="m0 0 3 2 1 3v13l-3 10-4 5-5 2-3-1 5-4 4-8 1-4v-16z" fill="#5286D0"/>
<path transform="translate(959,368)" d="m0 0h7v2l-15 2-15 4-13 7-11 10-8 7-11 9-2-1 14-12 8-8 12-9 13-6 8-3z" fill="#FDFDFD"/>
<path transform="translate(1082,38)" d="m0 0h9l10 1v20l-1 21h-1v-29l1-11h-17l-1 28-1 16h-1v-20l1-25z" fill="#FDFDFD"/>
<path transform="translate(1041,595)" d="m0 0v3l-12 13-2 3 11-1 2-1 18-1 8-6-2 4-6 5-20 2h-15l3-5 7-7 7-8z" fill="#5A84CF"/>
<path transform="translate(918,883)" d="m0 0 3 1-2 10-4 14 7-5-2 7-2 2-10 1-1-1 1-9 5-11h1l-1 8-4 9 1 1 7 1v-2h-3v-9l3-10z" fill="#FDFDFD"/>
<path transform="translate(1012,580)" d="m0 0 2 1-12 9-13 14-6 7 12 2h10l5-3h3l-7 6-26-2 1-4 12-13 7-8 7-6z" fill="#FDFDFD"/>
<path transform="translate(672,868)" d="m0 0 10 1 5 4 9 21-1 2-9-17-3-7-5-1 3 6 3 3-3 6-3 10-1-4 2-11-2-7z" fill="#FDFDFD"/>
<path transform="translate(994,179)" d="m0 0h42l6 1v1l-41 1h-22v-1z" fill="#3365C2"/>
<path transform="translate(856,244)" d="m0 0 4 1-30 14-13 7-2-1 11-8 14-7 15-5z" fill="#3363C1"/>
<path transform="translate(1430,882)" d="m0 0h5l4 5-1 5-3 4-6 2h-5l4-4 4-3-1-4-3-2v-2z" fill="#FDFDFD"/>
<path transform="translate(287,389)" d="m0 0 9 2 19 7 4 4-10 9-2-1 1-8 2-4-10-3-13-5z" fill="#9BB8E3"/>
<path transform="translate(1047,868)" d="m0 0 10 1 5 5 9 20 3 5-1 2-6-10-6-12-2-6-7-2 3 4-1 9-2 3 1-10z" fill="#FDFDFD"/>
<path transform="translate(907,746)" d="m0 0 7 2 14 7 1 3 5 3v2l-5-1-4-2v-2l-6-2-12-8z" fill="#3161BB"/>
<path transform="translate(1117,607)" d="m0 0 3 1-14 6-16 5-28 6h-10v-1l24-4 31-9z" fill="#FDFDFD"/>
<path transform="translate(911,884)" d="m0 0h7l-1 11-2 5-1 9h3v2h-7l-2-3 5-11v-12z" fill="#336FC8"/>
<path transform="translate(1362,883)" d="m0 0h13l1 1-1 10-4 15h-1v-9l4-15-7-1v2l-7 3-3 3v-3l-3 2 2-4z" fill="#FDFDFD"/>
<path transform="translate(1217,882)" d="m0 0 6 2 1 6-8 22h-1l1-10 4-10 1-8h-4v10l-2 7-1-4v-14z" fill="#FDFDFD"/>
<path transform="translate(1115,883)" d="m0 0h3l-2 9-2 6v14h-5v-11z" fill="#3471C9"/>
<path transform="translate(1015,873)" d="m0 0 1 3-5 19-6 20-4 8-4 4-6 1-3-2 9-2 5-8 5-16 7-25z" fill="#FDFDFD"/>
<path transform="translate(1404,883)" d="m0 0h8v3l-10 4-5 10-4 10-1-3 5-15 1-5-1-2 5 1z" fill="#DCE4F2"/>
<path transform="translate(1015,867)" d="m0 0h12l2 1-1 4-2 1-5-2h-8l-2 9-3 7-1 5h-1v-6h-2l1-3 3-3 4-10z" fill="#FDFDFD"/>
<path transform="translate(47,649)" d="m0 0h10l7 2-4 1h-15l-7 4-3 1-2 4-7 9-8 16-1-3 9-17 8-10 7-5z" fill="#FDFDFD"/>
<path transform="translate(829,900)" d="m0 0 2 8 3 1h10l7-4 4-4-1 7-3 4h-18l-6-4z" fill="#FDFDFD"/>
<path transform="translate(1275,884)" d="m0 0h5l-5 4-5 12-8 6 2-7h2l2-5 1-8z" fill="#3D73C8"/>
<path transform="translate(633,869)" d="m0 0h2l-1 9-4 19-3 1 1-13 1-1v-9z" fill="#467DCD"/>
<path transform="translate(1170,423)" d="m0 0v3l-11 13-7 7-8 7-14 12-4 2 6-7 10-9 11-9 12-13z" fill="#FDFDFD"/>
<path transform="translate(1193,884)" d="m0 0 4 1-3 16-3 7 5 1-1 2-7 1-1-3 4-12z" fill="#3471C9"/>
<path transform="translate(987,433)" d="m0 0v3l-14 12-17 13-10 9v-3l13-12 12-9 11-9z" fill="#FDFDFD"/>
<path transform="translate(1530,166)" d="m0 0h7l11 4 10 7 5 4 8 11 3 6-1 5-3-1h2l-4-11-11-12-10-7-11-4-6-1z" fill="#FDFDFD"/>
<path transform="translate(752,900)" d="m0 0h1l1 8h10v3l-2 2h-8l-5-5 1-7z" fill="#6A91D3"/>
<path transform="translate(1368,886)" d="m0 0 3 1-1 9-3 9-1 6 5 1v-3l4-1-1 5-1 1h-7l-3-3v-6l5-11z" fill="#FDFDFD"/>
<path transform="translate(722,890)" d="m0 0h1v8l-2 7 3 3v2l2 1h-7l-3-5 2-9z" fill="#5F8DD3"/>
<path transform="translate(843,883)" d="m0 0 3 1v11h-4l-4-4-6 1 1-8 1 4 8-2z" fill="#8FB1E0"/>
<path transform="translate(1253,905)" d="m0 0 1 3 15 6 3 5v3h-2v-3l-6-2-3-3-11-2 2-6z" fill="#3D77CB"/>
<path transform="translate(840,868)" d="m0 0h11l5 1 1 8-2 4-3-4-2-6-11-1z" fill="#B3C7E7"/>
<path transform="translate(1166,587)" d="m0 0h9l8 5 1 5-5-5-7-3-12 2-25 10-2-1 12-6z" fill="#FDFDFD"/>
<path transform="translate(932,595)" d="m0 0 2 3 3 7 8 7 10 5 14 4v1l-9-1-14-5-8-6-4-5-2-6z" fill="#FDFDFD"/>
<path transform="translate(1e3 538)" d="m0 0 1 2-8 11-8 7-10 6-10 4-3-1 16-8 8-5 10-10z" fill="#FDFDFD"/>
<path transform="translate(632,869)" d="m0 0v3l-2 5v7h-1l-1-5-9 9-8 9v-3l13-16 7-8z" fill="#F0F4F9"/>
<path transform="translate(720,891)" d="m0 0 1 2-4 11 2 6h5v-1l6-2 3-2-1 4-3 3-9 1-4-2-2-7 4-11z" fill="#FAFBFC"/>
<path transform="translate(677,870)" d="m0 0 7 2 4 9 1 3-1 3 1 5-3-4-4-10h-2l-2-5z" fill="#2F5EB2"/>
<path transform="translate(1166,890)" d="m0 0h3l5 10 1 6-3 1-7-13z" fill="#2F5DB2"/>
<path transform="translate(1186,231)" d="m0 0h2l4 20v6l-2-4-5-15-3 6-1-3z" fill="#FDFDFD"/>
<path transform="translate(771,890)" d="m0 0h1l-1 15v2h3l1 2h5l-3 3h-5l-5-6 1-9z" fill="#346ABF"/>
<path transform="translate(634,867)" d="m0 0h3l-1 9-5 24v7l1 4-4 1 1-13 6-30-2-1z" fill="#FDFDFD"/>
<path transform="translate(1679,339)" d="m0 0h3l2 4-1 3-1-4-5 1-4 8-2 1 2 6-3-3-3-7 4-4z" fill="#BACCEA"/>
<path transform="translate(1425,885)" d="m0 0h1l-1 8-2 1v-3l-4 7-2 13-2-2-1-5 4-11z" fill="#FDFDFD"/>
<path transform="translate(208,468)" d="m0 0 2 3-18 12-3 1v-3l12-9z" fill="#83A2DA"/>
<path transform="translate(779,281)" d="m0 0v3l-7 7-11 14-11 15v-3l12-17 9-11z" fill="#FDFDFD"/>
<path transform="translate(1251,905)" d="m0 0 1 3-2 4h7l7 3-3 1-3-1h-11l2 9-5-2v-6l6-9z" fill="#D8E2F2"/>
<path transform="translate(1112,573)" d="m0 0 2 1-20 20h-2l-2 4-6 6-2-1 8-8 2-3h2l2-4 5-4 4-5z" fill="#A6B6D4"/>
<path transform="translate(876,445)" d="m0 0v3l-3 6 1 4 6 2 8-4 10-9 2 1-11 10-8 4-6-1-5-5 1-4z" fill="#FDFDFD"/>
<path transform="translate(977,868)" d="m0 0 7 1 5 5 3 5v12l-3 9-2 1 2-8v-13l-4-7-8-4z" fill="#FDFDFD"/>
<path transform="translate(970,868)" d="m0 0h7l8 4 2 3-1 2-4-1-3-3-6-1-4-1-6 2 3-3z" fill="#7FA5DC"/>
<path transform="translate(1236,883)" d="m0 0h2v9l-2 9v10l-2 2h-7v-1h6v-10z" fill="#FDFDFD"/>
<path transform="translate(1314,880)" d="m0 0 1 3-2 6-1 9-2 2-2-1v-8l3-9z" fill="#3161BC"/>
<path transform="translate(926,490)" d="m0 0v3l-4 9 5 2 5 1 7-3 5-2-5 5-6 3-6-1-6-4-1-4z" fill="#FDFDFD"/>
<path transform="translate(1847,413)" d="m0 0 5 4-1 5-4-1-7 1v-3z" fill="#7A97D0"/>
<path transform="translate(1058,880)" d="m0 0 3 3 11 24 4 1-1 4-4-2-3-5-10-23z" fill="#FDFDFD"/>
<path transform="translate(1099,883)" d="m0 0h5v4h-2l-2 10-3 3-1-4z" fill="#4077CA"/>
<path transform="translate(906,408)" d="m0 0 2 1-9 9-9 11-8 10v-3l9-12 11-12z" fill="#FDFDFD"/>
<path transform="translate(902,887)" d="m0 0 2 1-6 10v9l1 2-5-2 1-12 4-6z" fill="#86A8DD"/>
<path transform="translate(877,885)" d="m0 0 3 4-6 15-3 7-5 1-1-2 2-5 1 4-1 2 3-2 3-10 3-8z" fill="#FDFDFD"/>
<path transform="translate(986,875)" d="m0 0 3 2 1 3v13l-2 2v-6h-2l-1-12z" fill="#3365C2"/>
<path transform="translate(1504,226)" d="m0 0 7 6 14 7h7l3-2-2 4-6 1-11-4-8-5-4-5z" fill="#FDFDFD"/>
<path transform="translate(1321,872)" d="m0 0h2l-1 4-5 6-3 8-1 10h-1v-11l2-9 2-4z" fill="#A9C0E6"/>
<path transform="translate(144,578)" d="m0 0 4 4 8 14 6-5-2 5-3 5-4-1h2l-6-11-5-9z" fill="#FDFDFD"/>
<path transform="translate(1098,882)" d="m0 0h5l-4 1-2 13-3 16h-2v-7l3-11 1-10z" fill="#FDFDFD"/>
<path transform="translate(1740,306)" d="m0 0 5 2 10 9 8 11 2 4-1 3-9-14-8-9-7-5z" fill="#FDFDFD"/>
<path transform="translate(1082,868)" d="m0 0h3l-1 6-2 6h-2l-1 3v-14z" fill="#AAC3E7"/>
<path transform="translate(1041,595)" d="m0 0v3l-12 13-2 3 11 1v1h-15l3-5 7-7 7-8z" fill="#FDFDFD"/>
<path transform="translate(152,512)" d="m0 0h5l5 1v6l-10-1-1-5z" fill="#3363C1"/>
<path transform="translate(894,898)" d="m0 0 1 4v5l11 3-1 3h-8l-4-3v-9z" fill="#A5BCE4"/>
<path transform="translate(1138,884)" d="m0 0 6 2-1 7-5 12-3 6-1-2 6-17v-4z" fill="#FDFDFD"/>
<path transform="translate(956,901)" d="m0 0h3l4 8 6 3v1l-8-1-6-7z" fill="#4E7DCC"/>
<path transform="translate(1231,883)" d="m0 0h2v11l-4 14-2 4-1-3 4-12v-13z" fill="#FDFDFD"/>
<path transform="translate(1804,367)" d="m0 0 7 6 14 14 3 4-1 2-7-7-7-8-9-9z" fill="#FDFDFD"/>
<path transform="translate(1390,883)" d="m0 0 7 1-2 4-3 12h-1v-9l-2-4z" fill="#FDFDFD"/>
<path transform="translate(745,676)" d="m0 0 5 5 10 14 6 8-1 2-8-10-12-17z" fill="#FDFDFD"/>
<path transform="translate(218,488)" d="m0 0v3l-8 8-11 6 1 5-4-4v-3l9-4 8-6z" fill="#FDFDFD"/>
<path transform="translate(1254,904)" d="m0 0 1 2 6 2 11 6 1 6-6-6-9-4-4-2z" fill="#FDFDFD"/>
<path transform="translate(1436,903)" d="m0 0 2 2-4 5-7 3h-8l4-2v-3h8z" fill="#F8FAFB"/>
<path transform="translate(759,882)" d="m0 0 4 2-4 8-3 8-1 8-2-2 1-8 5-13-2-2z" fill="#FDFDFD"/>
<path transform="translate(705,887)" d="m0 0 1 4-4 15-2-4 1-10 2-4z" fill="#FDFDFD"/>
<path transform="translate(846,704)" d="m0 0 2 1-21 21v-3l11-12z" fill="#FDFDFD"/>
<path transform="translate(769,689)" d="m0 0h1l3 15 1 9h-3l-5-6 1-2 5 5-2-6-1-7z" fill="#FDFDFD"/>
<path transform="translate(1119,471)" d="m0 0 2 1-10 9-8 7-6 5 2-4 11-11z" fill="#FDFDFD"/>
<path transform="translate(203,502)" d="m0 0 1 3 2 1-2 3 4-1-4 4-4-2-2-5z" fill="#26478B"/>
<path transform="translate(1784,436)" d="m0 0 2 1-18 18-1-4 14-12z" fill="#C7CFE0"/>
<path transform="translate(854,901)" d="m0 0 1 4-3 6-1 1h-5l1-4 5-5z" fill="#B4C7E8"/>
<path transform="translate(1430,882)" d="m0 0h5l1 5-3 7-1-3-1-4-3-2v-2z" fill="#89A9DD"/>
<path transform="translate(1051,870)" d="m0 0 8 2v3l-2 2-4 14-1-4 2-7v-5z" fill="#336CC5"/>
<path transform="translate(962,908)" d="m0 0 10 1 3-1v2l5-1-3 3-5 2-4-1-6-4z" fill="#F8F9FB"/>
<path transform="translate(884,882)" d="m0 0 7 1-1 4-2 1h-7l2-5z" fill="#9CB6E2"/>
<path transform="translate(218,446)" d="m0 0h7l-1 5-11-1-4 1 3-3z" fill="#7B90BB"/>
<path transform="translate(1678,346)" d="m0 0 6 2 2 6-2 1v-2l-3 1-5-5v-2z" fill="#3363C1"/>
<path transform="translate(1149,882)" d="m0 0 6 1v4l-2 1h-7l1-5z" fill="#97ACD4"/>
<path transform="translate(183,515)" d="m0 0 19 1h7l1 1v5l-2 1v-4l-16-1-9-2z" fill="#FDFDFD"/>
<path transform="translate(1813,433)" d="m0 0 3 2-7 7-5 2-2 1 2-4z" fill="#7594D0"/>
<path transform="translate(1071,898)" d="m0 0 4 4 1 6h-4l-4-8z" fill="#3369C4"/>
<path transform="translate(1337,903)" d="m0 0h2l-1 4-4 4h-14l-1-2h8l8-4z" fill="#CADAF0"/>
<path transform="translate(1369,900)" d="m0 0h1l1 12h-5l-1-2 2-9z" fill="#3471C9"/>
<path transform="translate(1134,882)" d="m0 0 4 2-2 1 1 1-1 9-2 4-1-16z" fill="#FDFDFD"/>
<path transform="translate(842,739)" d="m0 0v3l-7 10-7 9v-3l7-11z" fill="#FDFDFD"/>
<path transform="translate(1047,906)" d="m0 0 1 2 4 2-1 2h-11l4-5z" fill="#6188CD"/>
<path transform="translate(1326,871)" d="m0 0h9l5 3 3 4 2-3v6l-2 2-4-5-5-5-8-1z" fill="#FDFDFD"/>
<path transform="translate(36,665)" d="m0 0 4 2-6 7-3 4h-2l2-5z" fill="#3363C1"/>
<path transform="translate(773,298)" d="m0 0h2l-2 4-7 6-5 2 1-3h2l1-3h2v-2h2v-2h3z" fill="#3363C1"/>
<path transform="translate(1117,744)" d="m0 0 3 1-4 3-6 2-4 2h-7l3-2zm-20 8 2 1z" fill="#3160BB"/>
<path transform="translate(1355,137)" d="m0 0 2 1 2 10-2 7-2-2-1-9 2-2z" fill="#98B0DF"/>
<path transform="translate(689,892)" d="m0 0 3 4 6 12h3l-1 4-4-2-5-10-2-5z" fill="#FDFDFD"/>
<path transform="translate(911,884)" d="m0 0h7l-1 11-3-1-1-9z" fill="#4C7CCC"/>
<path transform="translate(1193,884)" d="m0 0 4 1-2 12-3 1z" fill="#336DC7"/>
<path transform="translate(786,882)" d="m0 0 3 1v12l-2 5h-1z" fill="#3760AC"/>
<path transform="translate(1157,906)" d="m0 0 5 1 3 1 1 3-1 1h-6l-2-2z" fill="#B2C8E9"/>
<path transform="translate(696,896)" d="m0 0 3 3v3h2v6h-4l-1-10z" fill="#5387D1"/>
<path transform="translate(259,445)" d="m0 0 5 3 3 4-1 3-3-3-4 1-2-4 2-1z" fill="#7292D2"/>
<path transform="translate(927,392)" d="m0 0 2 1-15 12-5 2 5-5 10-8z" fill="#FDFDFD"/>
<path transform="translate(910,111)" d="m0 0 2 3 2 7v5l-3 1-1-4z" fill="#92AEDE"/>
<path transform="translate(1315,906)" d="m0 0 4 2 1 2h11l-1 2-10 1-6-3z" fill="#497ACB"/>
<path transform="translate(603,906)" d="m0 0v3l-3 3h-9l1-2z" fill="#95B0DF"/>
<path transform="translate(707,870)" d="m0 0 4 1-4 10-2 7-1-4 2-13z" fill="#3471C9"/>
<path transform="translate(200,510)" d="m0 0 4 1h7l2 2-5 2h-6z" fill="#9BB8E3"/>
<path transform="translate(1213,901)" d="m0 0 3 2-1 9-5-1z" fill="#769AD7"/>
<path transform="translate(1273,888)" d="m0 0 1 3-5 10-7 5 1-5 4-2 4-6z" fill="#FDFDFD"/>
<path transform="translate(1115,883)" d="m0 0h3l-2 9-5 5 1-5z" fill="#3366C2"/>
<path transform="translate(1015,870)" d="m0 0h2v3h-2l-3 11-2-4 3-9z" fill="#3E75C9"/>
<path transform="translate(998,918)" d="m0 0h1v5l-4 3h-8l-1-3h11z" fill="#8FB1E0"/>
<path transform="translate(826,908)" d="m0 0 6 2 1 2h-14l2-3z" fill="#3367C3"/>
<path transform="translate(581,129)" d="m0 0 2 1-2 6-1-4-13 5-2-1 10-5z" fill="#FDFDFD"/>
<path transform="translate(778,61)" d="m0 0h5v3l-3-1-10 4-4 4 1-5 8-4z" fill="#FDFDFD"/>
<path transform="translate(1363,884)" d="m0 0h4v2l-7 3-3 3v-3l-3 2 2-4z" fill="#B3C9E9"/>
<path transform="translate(633,869)" d="m0 0h2l-1 9-5-1 2-5z" fill="#3366C2"/>
<path transform="translate(1197,867)" d="m0 0h5l1 5-4 1-3-2z" fill="#A8B5D0"/>
<path transform="translate(396,227)" d="m0 0 3 3-7 3-9 6-2-1z" fill="#FDFDFD"/>
<path transform="translate(571,134)" d="m0 0 2 1-3 6h-5v-4z" fill="#3263BF"/>
<path transform="translate(1351,87)" d="m0 0 6 2 12 8-1 4-4-5-13-8z" fill="#FDFDFD"/>
<path transform="translate(627,888)" d="m0 0 1 4-2 10-2-4-4-3 5-3z" fill="#FDFDFD"/>
<path transform="translate(1357,888)" d="m0 0 1 2-2 6h-3v5l-2 1 1-7 4-6z" fill="#4970B8"/>
<path transform="translate(629,887)" d="m0 0h2v7l-2 3-2 1 1-10z" fill="#3365C2"/>
<path transform="translate(1501,172)" d="m0 0 2 1-12 12v-3l7-8z" fill="#B7C2D8"/>
<path transform="translate(1021,868)" d="m0 0h8l-1 4-2 1-6-3z" fill="#9DB4DC"/>
<path transform="translate(1081,604)" d="m0 0v3l-3 3h7l-4 2-8 1 2-4z" fill="#FDFDFD"/>
<path transform="translate(673,906)" d="m0 0 3 3-1 3h-7l1-3z" fill="#3163BD"/>
<path transform="translate(1059,874)" d="m0 0 2 1 2 7-2 3-4-7z" fill="#2C57A8"/>
<path transform="translate(1332,154)" d="m0 0h2l-2 7h-2l-1-4-4-2z" fill="#6A8ED2"/>
<path transform="translate(895,898)" d="m0 0h2l1 9 1 2-5-2z" fill="#274A8F"/>
<path transform="translate(1168,890)" d="m0 0 4 5 3 8-1 3-6-12z" fill="#FDFDFD"/>
<path transform="translate(685,880)" d="m0 0 3 1 1 3-1 3 1 5-3-4-2-4z" fill="#8FA9D9"/>
<path transform="translate(850,871)" d="m0 0 3 1v4h3l1-4-1 8-2 1-4-8z" fill="#FDFDFD"/>
<path transform="translate(1843,416)" d="m0 0 2 1 2 4-7 1v-3z" fill="#749DD9"/>
<path transform="translate(733,884)" d="m0 0h4l1 4-3 5h-1z" fill="#3263BE"/>
<path transform="translate(9,702)" d="m0 0 1 4 10 5-3 1-10-5z" fill="#FDFDFD"/>
<path transform="translate(862,639)" d="m0 0h2l-1 3-8 7-4 2 6-7z" fill="#3363C1"/>
<path transform="translate(1065,605)" d="m0 0v3l-7 6h-8v-1l8-2z" fill="#FDFDFD"/>
<path transform="translate(1901,479)" d="m0 0 3 2-1 2-5 2-5 3-2-1z" fill="#FDFDFD"/>
<path transform="translate(1876,472)" d="m0 0 7 6 6-2-4 5-4-1-5-6z" fill="#FDFDFD"/>
<path transform="translate(199,473)" d="m0 0m-1 1m-1 1m-2 1h2l-2 5-6 3v-3z" fill="#6086CF"/>
<path transform="translate(696,83)" d="m0 0 3 1-7 4v7l-2-3-1-6z" fill="#FDFDFD"/>
<path transform="translate(756,908)" d="m0 0h8v3l-2 2h-8v-1l6-1 1-2h-5z" fill="#FDFDFD"/>
<path transform="translate(693,896)" d="m0 0h3l1 5 1 6h-2l-3-6z" fill="#3365C2"/>
<path transform="translate(733,886)" d="m0 0h1v7l-1 4-5 3h-2l1-3 5-5z" fill="#FDFDFD"/>
<path transform="translate(833,884)" d="m0 0 1 4 8-1-2 3-8 2z" fill="#FDFDFD"/>
<path transform="translate(1085,869)" d="m0 0 3 1-4 10h-2l1-6z" fill="#FDFDFD"/>
<path transform="translate(1936,375)" d="m0 0 2 3v6l-2 2z" fill="#FDFDFD"/>
<path transform="translate(866,886)" d="m0 0 1 3-1 2h-2l1-4z" fill="#FDFDFD"/>
<path transform="translate(1934,372)" d="m0 0 2 1-1 2z" fill="#FDFDFD"/>
<path transform="translate(694,794)" d="m0 0 1 2-2-1z" fill="#FDFDFD"/>
<path transform="translate(1919,365)" d="m0 0 3 1z" fill="#FDFDFD"/>
<path transform="translate(1907,378)" d="m0 0" fill="#FDFDFD"/>
<path transform="translate(1910,372)" d="m0 0" fill="#FDFDFD"/>
<path transform="translate(1916,366)" d="m0 0 2 1z" fill="#FDFDFD"/>
<path transform="translate(1924,365)" d="m0 0 2 1z" fill="#FDFDFD"/>
<path transform="translate(733,904)" d="m0 0" fill="#FDFDFD"/>
<path transform="translate(1339,902)" d="m0 0" fill="#FDFDFD"/>
<path transform="translate(725,900)" d="m0 0" fill="#FDFDFD"/>
<path transform="translate(654,850)" d="m0 0" fill="#FDFDFD"/>
<path transform="translate(655,849)" d="m0 0" fill="#FDFDFD"/>
<path transform="translate(656,848)" d="m0 0" fill="#FDFDFD"/>
<path transform="translate(657,847)" d="m0 0" fill="#FDFDFD"/>
<path transform="translate(669,819)" d="m0 0" fill="#FDFDFD"/>
<path transform="translate(670,818)" d="m0 0" fill="#FDFDFD"/>
<path transform="translate(671,817)" d="m0 0" fill="#FDFDFD"/>
<path transform="translate(672,816)" d="m0 0" fill="#FDFDFD"/>
<path transform="translate(673,815)" d="m0 0" fill="#FDFDFD"/>
<path transform="translate(674,814)" d="m0 0" fill="#FDFDFD"/>
<path transform="translate(675,813)" d="m0 0" fill="#FDFDFD"/>
<path transform="translate(676,812)" d="m0 0" fill="#FDFDFD"/>
<path transform="translate(677,811)" d="m0 0" fill="#FDFDFD"/>
<path transform="translate(678,810)" d="m0 0" fill="#FDFDFD"/>
<path transform="translate(679,809)" d="m0 0" fill="#FDFDFD"/>
<path transform="translate(680,808)" d="m0 0" fill="#FDFDFD"/>
<path transform="translate(681,807)" d="m0 0" fill="#FDFDFD"/>
<path transform="translate(682,806)" d="m0 0" fill="#FDFDFD"/>
<path transform="translate(683,805)" d="m0 0" fill="#FDFDFD"/>
<path transform="translate(684,804)" d="m0 0" fill="#FDFDFD"/>
<path transform="translate(685,803)" d="m0 0" fill="#FDFDFD"/>
<path transform="translate(686,802)" d="m0 0" fill="#FDFDFD"/>
<path transform="translate(687,801)" d="m0 0" fill="#FDFDFD"/>
<path transform="translate(688,800)" d="m0 0" fill="#FDFDFD"/>
<path transform="translate(689,799)" d="m0 0" fill="#FDFDFD"/>
<path transform="translate(690,798)" d="m0 0" fill="#FDFDFD"/>
<path transform="translate(691,797)" d="m0 0" fill="#FDFDFD"/>
<path transform="translate(692,796)" d="m0 0" fill="#FDFDFD"/>
<path transform="translate(695,793)" d="m0 0" fill="#FDFDFD"/>
<path transform="translate(696,792)" d="m0 0" fill="#FDFDFD"/>
<path transform="translate(697,791)" d="m0 0" fill="#FDFDFD"/>
<path transform="translate(698,790)" d="m0 0" fill="#FDFDFD"/>
<path transform="translate(715,789)" d="m0 0" fill="#FDFDFD"/>
<path transform="translate(699,789)" d="m0 0" fill="#FDFDFD"/>
<path transform="translate(716,788)" d="m0 0" fill="#FDFDFD"/>
<path transform="translate(700,788)" d="m0 0" fill="#FDFDFD"/>
<path transform="translate(717,787)" d="m0 0" fill="#FDFDFD"/>
<path transform="translate(701,787)" d="m0 0" fill="#FDFDFD"/>
<path transform="translate(718,786)" d="m0 0" fill="#FDFDFD"/>
<path transform="translate(702,786)" d="m0 0" fill="#FDFDFD"/>
<path transform="translate(719,785)" d="m0 0" fill="#FDFDFD"/>
<path transform="translate(703,785)" d="m0 0" fill="#FDFDFD"/>
<path transform="translate(720,784)" d="m0 0" fill="#FDFDFD"/>
<path transform="translate(704,784)" d="m0 0" fill="#FDFDFD"/>
<path transform="translate(721,783)" d="m0 0" fill="#FDFDFD"/>
<path transform="translate(705,783)" d="m0 0" fill="#FDFDFD"/>
<path transform="translate(722,782)" d="m0 0" fill="#FDFDFD"/>
<path transform="translate(706,782)" d="m0 0" fill="#FDFDFD"/>
<path transform="translate(723,781)" d="m0 0" fill="#FDFDFD"/>
<path transform="translate(707,781)" d="m0 0" fill="#FDFDFD"/>
<path transform="translate(724,780)" d="m0 0" fill="#FDFDFD"/>
<path transform="translate(708,780)" d="m0 0" fill="#FDFDFD"/>
<path transform="translate(725,779)" d="m0 0" fill="#FDFDFD"/>
<path transform="translate(709,779)" d="m0 0" fill="#FDFDFD"/>
<path transform="translate(726,778)" d="m0 0" fill="#FDFDFD"/>
<path transform="translate(710,778)" d="m0 0" fill="#FDFDFD"/>
<path transform="translate(727,777)" d="m0 0" fill="#FDFDFD"/>
<path transform="translate(711,777)" d="m0 0" fill="#FDFDFD"/>
<path transform="translate(728,776)" d="m0 0" fill="#FDFDFD"/>
<path transform="translate(712,776)" d="m0 0" fill="#FDFDFD"/>
<path transform="translate(729,775)" d="m0 0" fill="#FDFDFD"/>
<path transform="translate(713,775)" d="m0 0" fill="#FDFDFD"/>
<path transform="translate(730,774)" d="m0 0" fill="#FDFDFD"/>
<path transform="translate(714,774)" d="m0 0" fill="#FDFDFD"/>
<path transform="translate(731,773)" d="m0 0" fill="#FDFDFD"/>
<path transform="translate(715,773)" d="m0 0" fill="#FDFDFD"/>
<path transform="translate(732,772)" d="m0 0" fill="#FDFDFD"/>
<path transform="translate(716,772)" d="m0 0" fill="#FDFDFD"/>
<path transform="translate(733,771)" d="m0 0" fill="#FDFDFD"/>
<path transform="translate(717,771)" d="m0 0" fill="#FDFDFD"/>
<path transform="translate(734,770)" d="m0 0" fill="#FDFDFD"/>
<path transform="translate(718,770)" d="m0 0" fill="#FDFDFD"/>
<path transform="translate(735,769)" d="m0 0" fill="#FDFDFD"/>
<path transform="translate(719,769)" d="m0 0" fill="#FDFDFD"/>
<path transform="translate(736,768)" d="m0 0" fill="#FDFDFD"/>
<path transform="translate(720,768)" d="m0 0" fill="#FDFDFD"/>
<path transform="translate(737,767)" d="m0 0" fill="#FDFDFD"/>
<path transform="translate(721,767)" d="m0 0" fill="#FDFDFD"/>
<path transform="translate(722,766)" d="m0 0" fill="#FDFDFD"/>
<path transform="translate(723,765)" d="m0 0" fill="#FDFDFD"/>
<path transform="translate(724,764)" d="m0 0" fill="#FDFDFD"/>
<path transform="translate(725,763)" d="m0 0" fill="#FDFDFD"/>
<path transform="translate(1891,433)" d="m0 0" fill="#FDFDFD"/>
<path transform="translate(1931,396)" d="m0 0" fill="#FDFDFD"/>
<path transform="translate(1932,395)" d="m0 0" fill="#FDFDFD"/>
<path transform="translate(1933,394)" d="m0 0" fill="#FDFDFD"/>
<path transform="translate(1934,393)" d="m0 0" fill="#FDFDFD"/>
<path transform="translate(1935,391)" d="m0 0" fill="#FDFDFD"/>
<path transform="translate(1932,391)" d="m0 0" fill="#FDFDFD"/>
<path transform="translate(1933,389)" d="m0 0" fill="#FDFDFD"/>
<path transform="translate(1934,388)" d="m0 0" fill="#FDFDFD"/>
<path transform="translate(1880,380)" d="m0 0" fill="#FDFDFD"/>
<path transform="translate(1847,380)" d="m0 0" fill="#FDFDFD"/>
<path transform="translate(1881,379)" d="m0 0" fill="#FDFDFD"/>
<path transform="translate(1848,379)" d="m0 0" fill="#FDFDFD"/>
<path transform="translate(1882,378)" d="m0 0" fill="#FDFDFD"/>
<path transform="translate(1849,378)" d="m0 0" fill="#FDFDFD"/>
<path transform="translate(1850,377)" d="m0 0" fill="#FDFDFD"/>
<path transform="translate(1908,376)" d="m0 0" fill="#FDFDFD"/>
<path transform="translate(1851,376)" d="m0 0" fill="#FDFDFD"/>
<path transform="translate(1852,375)" d="m0 0" fill="#FDFDFD"/>
<path transform="translate(1909,374)" d="m0 0" fill="#FDFDFD"/>
<path transform="translate(1853,374)" d="m0 0" fill="#FDFDFD"/>
<path transform="translate(1854,373)" d="m0 0" fill="#FDFDFD"/>
<path transform="translate(1855,372)" d="m0 0" fill="#FDFDFD"/>
<path transform="translate(1933,371)" d="m0 0" fill="#FDFDFD"/>
<path transform="translate(1911,371)" d="m0 0" fill="#FDFDFD"/>
<path transform="translate(1856,371)" d="m0 0" fill="#FDFDFD"/>
<path transform="translate(1932,370)" d="m0 0" fill="#FDFDFD"/>
<path transform="translate(1912,370)" d="m0 0" fill="#FDFDFD"/>
<path transform="translate(1857,370)" d="m0 0" fill="#FDFDFD"/>
<path transform="translate(1931,369)" d="m0 0" fill="#FDFDFD"/>
<path transform="translate(1913,369)" d="m0 0" fill="#FDFDFD"/>
<path transform="translate(1858,369)" d="m0 0" fill="#FDFDFD"/>
<path transform="translate(1930,368)" d="m0 0" fill="#FDFDFD"/>
<path transform="translate(1914,368)" d="m0 0" fill="#FDFDFD"/>
<path transform="translate(1859,368)" d="m0 0" fill="#FDFDFD"/>
<path transform="translate(1929,367)" d="m0 0" fill="#FDFDFD"/>
<path transform="translate(1915,367)" d="m0 0" fill="#FDFDFD"/>
<path transform="translate(1860,367)" d="m0 0" fill="#FDFDFD"/>
<path transform="translate(1927,366)" d="m0 0" fill="#FDFDFD"/>
<path transform="translate(1861,366)" d="m0 0" fill="#FDFDFD"/>
<path transform="translate(1862,365)" d="m0 0" fill="#FDFDFD"/>
<path transform="translate(1863,364)" d="m0 0" fill="#FDFDFD"/>
<path transform="translate(1864,363)" d="m0 0" fill="#FDFDFD"/>
<path transform="translate(1865,362)" d="m0 0" fill="#FDFDFD"/>
<path transform="translate(1866,361)" d="m0 0" fill="#FDFDFD"/>
<path transform="translate(1867,360)" d="m0 0" fill="#FDFDFD"/>
<path transform="translate(1868,359)" d="m0 0" fill="#FDFDFD"/>
<path transform="translate(1869,358)" d="m0 0" fill="#FDFDFD"/>
<path transform="translate(1870,357)" d="m0 0" fill="#FDFDFD"/>
<path transform="translate(1871,356)" d="m0 0" fill="#FDFDFD"/>
<path transform="translate(1872,355)" d="m0 0" fill="#FDFDFD"/>
<path transform="translate(1873,354)" d="m0 0" fill="#FDFDFD"/>
<path transform="translate(1874,353)" d="m0 0" fill="#FDFDFD"/>
<path transform="translate(1875,352)" d="m0 0" fill="#FDFDFD"/>
<path transform="translate(1876,351)" d="m0 0" fill="#FDFDFD"/>
<path transform="translate(1877,350)" d="m0 0" fill="#FDFDFD"/>
<path transform="translate(1373,186)" d="m0 0" fill="#FDFDFD"/>
</svg>
